# xmcd
#
# Track frame offsets: 
#        150
#        29389
#        45903
#        72896
#        106960
#        133804
#        177925
#        209201
#        229650
#
# Disc length: 3514 seconds
#
# Revision: 0
# Processed by: cddbd v1.5.2PL0 Copyright (c) Steve Scherf et al.
# Submitted via: ExactAudioCopy v0.99pb5
#
DISCID=7d0db809
DTITLE=Eric Clapton  - E.C. Is Here - Disc 03 (DJ Copy 65)
DYEAR=1900
DGENRE=
TTITLE0=Smile
TTITLE1=Easy Now
TTITLE2=Let It Grow
TTITLE3=I Shot The Sheriff
TTITLE4=Layla
TTITLE5=Little Wing
TTITLE6=Willie And The Hand Jive
TTITLE7=Get Ready
TTITLE8=Badge
EXTD=
EXTT0=
EXTT1=
EXTT2=
EXTT3=
EXTT4=
EXTT5=
EXTT6=
EXTT7=
EXTT8=
PLAYORDER=
